<svg xmlns="http://www.w3.org/2000/svg" xml:space="preserve" width="301.75" height="303.62" fill-rule="evenodd" clip-rule="evenodd" style="image-rendering:optimizeQuality;shape-rendering:geometricPrecision;text-rendering:geometricPrecision"><path d="M62.97 14.86h207.39c25.94 0 47.18 21.23 47.18 47.18V75.1H15.79V62.04c0-25.95 21.23-47.18 47.18-47.18m103.7 93.96c25.75 0 49.06 10.44 65.94 27.31 16.87 16.87 27.31 40.19 27.31 65.94 0 .97-.02 1.94-.05 2.91.03.27.05.55.05.83 0 1.09-.09 2.17-.26 3.23-1.7 22.97-11.72 43.63-27.06 58.97-16.87 16.87-40.19 27.31-65.94 27.31s-49.06-10.44-65.94-27.31c-15.34-15.34-25.36-36-27.06-58.97-.17-1.06-.26-2.14-.26-3.23 0-.28.02-.56.05-.83-.03-.96-.05-1.93-.05-2.91 0-25.75 10.44-49.06 27.31-65.94 16.87-16.87 40.19-27.31 65.94-27.31zm72.25 123.39a88 88 0 0 1-8.92 4.01c-7.51 2.91-16.29 5.3-25.97 7.04-1.69 8.2-3.87 15.68-6.45 22.2-1.5 3.8-3.15 7.3-4.94 10.46a78.2 78.2 0 0 0 29.37-18.51 78.4 78.4 0 0 0 16.91-25.2m-50.72 13.22c-6.91.67-14.12 1.03-21.53 1.03s-14.62-.36-21.53-1.03c1.3 5.29 2.82 10.16 4.55 14.52 4.97 12.59 11.02 20.37 16.98 20.37s12.01-7.79 16.98-20.37c1.72-4.36 3.25-9.24 4.55-14.52m-58.89-2.17c-9.68-1.74-18.46-4.13-25.97-7.04a86 86 0 0 1-8.92-4.01 78.2 78.2 0 0 0 16.91 25.2c8.2 8.2 18.21 14.58 29.37 18.51-1.79-3.17-3.44-6.67-4.94-10.46-2.57-6.52-4.76-14-6.45-22.2M88.58 207.3c1.2 5.27 8.67 10.56 20.15 15 5.31 2.05 11.39 3.83 18.06 5.25-.96-8.09-1.47-16.64-1.47-25.47 0-4.63.14-9.18.41-13.62-2.32-.47-4.59-.98-6.8-1.52-10.29-2.53-19.28-5.9-26.44-9.89a78.2 78.2 0 0 0-4.09 25.03c0 1.76.06 3.5.17 5.23zm53.63 22.77c7.7.92 15.92 1.41 24.46 1.41s16.76-.5 24.46-1.41c1.24-8.72 1.91-18.14 1.91-28 0-3.82-.11-7.58-.3-11.26-8.27.99-17.03 1.52-26.07 1.52-9.05 0-17.8-.53-26.07-1.52-.19 3.68-.3 7.44-.3 11.26 0 9.86.68 19.28 1.91 28m64.35-2.53c6.67-1.43 12.75-3.19 18.06-5.25 11.47-4.44 18.94-9.73 20.15-15 .11-1.73.17-3.47.17-5.23 0-8.75-1.44-17.17-4.09-25.03-7.15 3.99-16.15 7.36-26.44 9.89-2.2.54-4.47 1.05-6.8 1.52.27 4.44.41 9 .41 13.62 0 8.83-.52 17.39-1.47 25.47zM98.63 163.37c6.02 3.57 14.18 6.66 23.87 9.05 1.52.37 3.08.73 4.68 1.07 1.78-13.21 4.74-25.08 8.58-34.8 1.5-3.8 3.15-7.3 4.94-10.46a78.2 78.2 0 0 0-29.37 18.51 78.4 78.4 0 0 0-12.7 16.64zm43.33 12.53c7.78.93 16.07 1.44 24.71 1.44 8.63 0 16.93-.5 24.71-1.44-1.59-12.13-4.26-22.95-7.73-31.72-4.97-12.59-11.02-20.38-16.98-20.38s-12.01 7.79-16.98 20.38c-3.46 8.76-6.14 19.59-7.73 31.72m64.2-2.42c1.59-.34 3.15-.69 4.68-1.07 9.69-2.39 17.85-5.48 23.87-9.05a78.4 78.4 0 0 0-12.7-16.64 78.4 78.4 0 0 0-29.37-18.51c1.79 3.16 3.44 6.66 4.94 10.46 3.84 9.72 6.81 21.59 8.58 34.8zM111.2 38.56c5.55 0 10.04 4.5 10.04 10.04 0 5.55-4.5 10.04-10.04 10.04-5.55 0-10.04-4.5-10.04-10.04 0-5.55 4.5-10.04 10.04-10.04m-43.09 0c5.55 0 10.04 4.5 10.04 10.04 0 5.55-4.5 10.04-10.04 10.04-5.55 0-10.04-4.5-10.04-10.04 0-5.55 4.5-10.04 10.04-10.04m249.43 51.52V271.3c0 25.95-21.23 47.18-47.18 47.18H62.97c-25.94 0-47.18-21.23-47.18-47.18V90.08Z" style="fill:#000" transform="translate(-15.79 -14.86)"/></svg>